<?xml version="1.0" standalone="no"?>
<!DOCTYPE svg PUBLIC "-//W3C//DTD SVG 20010904//EN"
 "http://www.w3.org/TR/2001/REC-SVG-20010904/DTD/svg10.dtd">
<svg version="1.0" xmlns="http://www.w3.org/2000/svg"
 width="528.000000pt" height="528.000000pt" viewBox="0 0 528.000000 528.000000"
 preserveAspectRatio="xMidYMid meet">
<metadata>
Created by potrace 1.14, written by Peter Selinger 2001-2017
</metadata>
<g transform="translate(0.000000,528.000000) scale(0.100000,-0.100000)"
fill="#000000" stroke="none">
<path d="M632 5265 c-157 -34 -281 -103 -397 -219 -121 -121 -187 -242 -220
-402 -23 -110 -23 -3898 0 -4008 33 -160 99 -281 220 -402 122 -122 262 -196
425 -224 46 -8 629 -10 2020 -8 2195 4 1987 -4 2156 79 199 97 361 294 421
509 17 62 18 166 18 2050 0 1884 -1 1988 -18 2050 -60 215 -222 412 -421 509
-169 83 41 75 -2171 78 -1641 1 -1981 -1 -2033 -12z m1233 -1091 c26 -13 49
-37 65 -65 l25 -44 3 -1355 c2 -745 0 -1378 -3 -1407 -8 -64 -38 -110 -90
-140 -39 -22 -45 -23 -402 -23 -232 0 -372 4 -390 11 -38 14 -71 46 -94 91
-18 36 -19 80 -19 1423 0 1224 2 1390 15 1422 21 50 42 72 90 94 37 18 67 19
400 16 343 -2 362 -3 400 -23z m1148 12 c48 -18 74 -41 98 -88 18 -36 19 -83
19 -1428 0 -1159 -2 -1396 -14 -1423 -16 -39 -61 -82 -99 -96 -18 -7 -158 -11
-388 -11 -339 0 -362 1 -399 20 -49 25 -77 64 -90 126 -7 33 -10 499 -8 1414
l3 1365 22 40 c22 41 46 62 98 82 46 18 707 17 758 -1z m1193 -11 c36 -18 57
-37 75 -67 l24 -43 0 -1395 0 -1395 -25 -45 c-15 -27 -41 -53 -65 -67 -40 -22
-44 -23 -406 -23 -363 0 -366 0 -409 23 -30 16 -51 37 -67 67 l-23 44 2 1406
3 1407 29 37 c56 74 66 76 462 76 l350 0 50 -25z"/>
<path d="M1155 3818 c-60 -47 -66 -124 -13 -175 l29 -28 289 0 288 0 26 24
c52 49 51 124 -4 174 l-30 27 -279 0 c-270 0 -279 -1 -306 -22z"/>
<path d="M1162 3410 c-40 -24 -64 -77 -56 -119 4 -17 22 -44 41 -61 l34 -30
279 0 280 0 30 28 c60 53 55 136 -9 179 -33 23 -39 23 -300 23 -249 0 -268 -1
-299 -20z"/>
<path d="M2345 3831 c-36 -15 -58 -49 -63 -99 -4 -44 -1 -53 26 -83 l30 -34
264 -3 c144 -2 277 -1 294 3 41 7 82 49 90 90 7 39 -13 84 -52 114 -26 20 -38
21 -298 20 -149 0 -280 -4 -291 -8z"/>
<path d="M2332 3410 c-60 -37 -71 -119 -23 -172 l29 -33 279 -3 c311 -4 327
-1 357 63 22 45 20 66 -7 106 -38 57 -47 59 -337 59 -247 0 -267 -1 -298 -20z"/>
<path d="M3509 3825 c-27 -15 -59 -69 -59 -100 0 -36 34 -88 66 -101 51 -21
543 -20 584 1 76 39 80 151 8 195 -31 19 -50 20 -303 20 -214 -1 -275 -4 -296
-15z"/>
<path d="M3530 3423 c-30 -11 -70 -57 -76 -89 -8 -42 20 -100 57 -119 41 -22
547 -22 588 -1 78 41 83 149 8 195 -33 20 -46 21 -298 20 -145 0 -271 -3 -279
-6z"/>
</g>
</svg>
